<svg xmlns="http://www.w3.org/2000/svg" viewBox="0 0 512 512"><title>半亩 · Half-Acre</title><clipPath id="b"><path d="M108.8 40.2 109.2 36.9 109.5 33.8 110.6 31.1 112 28.6 114.3 27 116.8 25.3 119.8 24.8 123.2 24.4 126.5 24.6 130 24.8 133.5 24.9 137 24.8 140.5 24.6 144 24.2 147.5 23.7 151 22.7 154.5 21.7 158 21 161.5 20.6 165 20.4 168.5 20.3 172 20.1 175.5 20 178.9 20 182.4 20.2 185.9 20.7 189.4 21.8 192.9 23.8 196.4 26.2 199.9 27.4 203.4 26.5 206.9 24.4 210.4 22.4 213.9 21.3 217.4 20.9 220.9 20.8 224.4 20.8 227.9 20.9 231.4 21 234.9 21.2 238.4 21.6 241.9 21.9 245.4 22.1 248.9 22.1 252.4 22.2 255.9 22.2 259.4 22.2 262.9 22.4 266.4 22.6 269.9 22.7 273.4 22.8 276.9 22.9 280.4 22.9 283.9 22.9 287.4 22.6 290.9 22 294.4 21.7 297.9 21.8 301.4 22.2 304.9 22.6 308.4 22.7 311.9 22.7 315.4 22.8 318.9 22.8 322.4 22.7 325.9 22.4 329.4 22.1 332.9 21.9 336.4 22 339.9 22.3 343.4 22.5 346.9 22.7 350.4 23 353.9 23.3 357.4 23.6 360.9 23.5 364.4 23.2 367.9 22.9 371.4 22.8 374.9 22.7 378.4 22.5 381.9 22.3 385.4 22.3 388.9 22.5 392.3 23.1 395.7 23.4 398.8 24.9 402 26.6 404.1 29.5 405.7 32.7 406.2 36.3 406.6 39.8 406.6 43.4 406.7 46.9 407 50.4 407.3 53.9 407.3 57.4 406.9 60.9 406.4 64.4 406.2 67.9 406.4 71.4 406.8 74.9 407.1 78.3 407.1 81.8 407 85.3 406.9 88.8 406.7 92.3 406.5 95.8 406.3 99.3 406.2 102.8 406 106.3 405.9 109.8 405.8 113.3 405.7 116.8 405.7 120.3 405.6 123.8 405.5 127.3 405.4 130.8 405.2 134.3 405 137.8 404.8 141.3 404.7 144.8 404.9 148.3 405.1 151.8 405.3 155.3 405.3 158.8 405.3 162.3 405.5 165.8 405.8 169.3 405.9 172.8 405.9 176.3 406.1 179.8 406.5 183.3 407 186.8 407.4 190.3 407.6 193.8 407.2 197.3 406.4 200.8 405.6 204.3 404.9 207.8 404.3 211.3 403.5 214.8 402.7 218.3 402 221.8 401.8 225.3 402.1 228.8 402.9 232.3 404.1 235.8 405.1 239.3 405.8 242.8 406 246.3 405.9 249.8 405.7 253.3 405.5 256.8 405.4 260.3 405.4 263.8 405.3 267.3 405.2 270.8 405.3 274.3 405.4 277.8 405.5 281.3 405.3 284.8 405.1 288.3 404.9 291.8 405.1 295.3 405.3 298.8 405.6 302.3 405.8 305.8 405.7 309.3 405.5 312.8 405.3 316.3 405.3 319.8 405.4 323.3 405.5 326.8 405.6 330.3 405.6 333.8 405.6 337.3 405.6 340.8 405.6 344.3 405.4 347.8 405.3 351.3 405.1 354.8 405.1 358.3 404.9 361.8 404.9 365.3 404.9 368.8 405 372.3 405.1 375.8 405.2 379.3 405.3 382.8 405.3 386.3 405.2 389.8 405.2 393.3 405.3 396.8 405.3 400.3 405.2 403.8 405.3 407.3 405.7 410.8 406.2 414.3 406.4 417.8 406.2 421.3 406 424.8 405.8 428.3 405.7 431.8 405.6 435.3 405.4 438.8 405.4 442.3 405.5 445.8 405.3 449.3 405.3 452.8 405.6 456.3 406.3 459.8 407.1 463.3 407.8 466.8 408.1 470.3 408 474 407.6 477.6 406.6 481.4 404.4 484.8 401.6 487.6 397.8 488.8 393.8 487.6 390.1 484.1 386.8 481.9 383.8 483.1 380.3 486.2 376.8 488 373.3 488.4 369.8 488.5 366.3 489 362.8 489.7 359.3 490.3 355.8 490.6 352.3 490.7 348.8 490.9 345.3 491.2 341.8 491.6 338.3 491.9 334.8 492.2 331.3 492.3 327.8 492.1 324.3 491.8 320.8 491.4 317.3 491.2 313.8 490.9 310.3 490.6 306.8 490.2 303.3 489.4 299.8 488.6 296.3 488 292.8 488.1 289.3 488.6 285.8 489 282.3 488.9 278.8 488.4 275.3 487.7 271.8 487 268.3 486.6 264.8 486.1 261.3 485.7 257.8 485.3 254.3 484.9 250.8 484.5 247.3 484.4 243.8 484.7 240.3 485.2 236.8 485.8 233.3 486.4 229.8 486.8 226.3 487 222.8 487.2 219.3 487.5 215.8 488 212.3 488.6 208.8 488.9 205.3 489 201.8 489.1 198.3 489.2 194.8 489.3 191.3 489.3 187.8 489.3 184.3 489.3 180.8 489.3 177.3 489.3 173.8 489.3 170.3 489.3 166.8 489.5 163.3 489.8 159.8 490.1 156.3 490.2 152.8 490.1 149.3 490 145.8 490.1 142.3 490.2 138.8 490.4 135.4 490.6 131.9 490.7 128.4 490.8 124.8 491 121.2 490.8 117.6 490.2 114.3 488.9 111.2 486.8 108.7 484.2 106.9 481 106.1 477.5 105.6 473.9 105.2 470.4 105 466.9 104.8 463.4 105 459.9 105.2 456.4 105.4 452.9 105.7 449.4 106.1 445.9 106.5 442.4 106.8 438.9 107.1 435.4 107.5 431.9 108.1 428.4 108.4 424.9 108.2 421.4 107.6 417.9 107 414.4 106.3 410.9 105.9 407.4 105.4 403.9 105 400.4 104.6 396.9 104.3 393.4 104.1 389.9 104.1 386.4 104.2 382.9 104.6 379.4 105 375.9 105.2 372.4 105.4 368.9 105.6 365.4 105.7 361.9 105.9 358.4 105.9 354.9 105.9 351.4 105.9 347.9 105.8 344.4 105.8 340.9 105.7 337.4 105.7 333.9 105.9 330.4 106 326.9 106.1 323.4 106.1 319.9 106.2 316.4 106.3 312.9 106.3 309.4 106.2 305.9 106.1 302.4 106 298.9 106 295.4 106.1 291.9 106.1 288.4 106.1 284.9 106.1 281.4 106 277.9 105.9 274.4 105.8 270.9 105.4 267.4 105.2 263.9 105.9 260.4 107.7 256.9 109.5 253.4 109.6 249.9 107.9 246.4 106.1 242.9 105.2 239.4 104.9 236 104.7 232.5 104.5 229 104.5 225.5 104.5 222 104.5 218.5 104.5 215 104.6 211.5 104.8 208 104.9 204.5 105.1 201 105.2 197.5 105.2 194 105.1 190.5 105 187 105 183.5 105.1 180 105.3 176.5 105.2 173 105.1 169.5 104.9 166 104.7 162.5 104.5 159 104.1 155.5 103.7 152 103.5 148.5 103.6 145 103.6 141.5 103.7 138 103.8 134.5 103.8 131 103.8 127.5 103.8 124 103.9 120.5 104.1 117 104.4 113.5 104.4 110 104.3 106.5 104.3 103 104.4 99.5 104.8 96 105.5 92.5 106.2 89 106.8 85.5 107.2 82 107.5 78.5 107.7 75 108 71.5 108.2 68 108.4 64.5 108.5 61 108.4 57.5 108.3 54 108.2 50.5 108.2 47 108.4 43.5Z"/></clipPath><path fill="#b93a2b" d="M108.8 40.2 109.2 36.9 109.5 33.8 110.6 31.1 112 28.6 114.3 27 116.8 25.3 119.8 24.8 123.2 24.4 126.5 24.6 130 24.8 133.5 24.9 137 24.8 140.5 24.6 144 24.2 147.5 23.7 151 22.7 154.5 21.7 158 21 161.5 20.6 165 20.4 168.5 20.3 172 20.1 175.5 20 178.9 20 182.4 20.2 185.9 20.7 189.4 21.8 192.9 23.8 196.4 26.2 199.9 27.4 203.4 26.5 206.9 24.4 210.4 22.4 213.9 21.3 217.4 20.9 220.9 20.8 224.4 20.8 227.9 20.9 231.4 21 234.9 21.2 238.4 21.6 241.9 21.9 245.4 22.1 248.9 22.1 252.4 22.2 255.9 22.2 259.4 22.2 262.9 22.4 266.4 22.6 269.9 22.7 273.4 22.8 276.9 22.9 280.4 22.9 283.9 22.9 287.4 22.6 290.9 22 294.4 21.7 297.9 21.8 301.4 22.2 304.9 22.6 308.4 22.7 311.9 22.7 315.4 22.8 318.9 22.8 322.4 22.7 325.9 22.4 329.4 22.1 332.9 21.9 336.4 22 339.9 22.3 343.4 22.5 346.9 22.7 350.4 23 353.9 23.3 357.4 23.6 360.9 23.5 364.4 23.2 367.9 22.9 371.4 22.8 374.9 22.7 378.4 22.5 381.9 22.3 385.4 22.3 388.9 22.5 392.3 23.1 395.7 23.4 398.8 24.9 402 26.6 404.1 29.5 405.7 32.7 406.2 36.3 406.6 39.8 406.6 43.4 406.7 46.9 407 50.4 407.3 53.9 407.3 57.4 406.9 60.9 406.4 64.4 406.2 67.9 406.4 71.4 406.8 74.9 407.1 78.3 407.1 81.8 407 85.3 406.9 88.8 406.7 92.3 406.5 95.8 406.3 99.3 406.2 102.8 406 106.3 405.9 109.8 405.8 113.3 405.7 116.8 405.7 120.3 405.6 123.8 405.5 127.3 405.4 130.8 405.2 134.3 405 137.8 404.8 141.3 404.7 144.8 404.9 148.3 405.1 151.8 405.3 155.3 405.3 158.8 405.3 162.3 405.5 165.8 405.8 169.3 405.9 172.8 405.9 176.3 406.1 179.8 406.5 183.3 407 186.8 407.4 190.3 407.6 193.8 407.2 197.3 406.4 200.8 405.6 204.3 404.9 207.8 404.3 211.3 403.5 214.8 402.7 218.3 402 221.8 401.8 225.3 402.1 228.8 402.9 232.3 404.1 235.8 405.1 239.3 405.8 242.8 406 246.3 405.9 249.8 405.7 253.3 405.5 256.8 405.4 260.3 405.4 263.8 405.3 267.3 405.2 270.8 405.3 274.3 405.4 277.8 405.5 281.3 405.3 284.8 405.1 288.3 404.9 291.8 405.1 295.3 405.3 298.8 405.6 302.3 405.8 305.8 405.7 309.3 405.5 312.8 405.3 316.3 405.3 319.8 405.4 323.3 405.5 326.8 405.6 330.3 405.6 333.8 405.6 337.3 405.6 340.8 405.6 344.3 405.4 347.8 405.3 351.3 405.1 354.8 405.1 358.3 404.9 361.8 404.9 365.3 404.9 368.8 405 372.3 405.1 375.8 405.2 379.3 405.3 382.8 405.3 386.3 405.2 389.8 405.2 393.3 405.3 396.8 405.3 400.3 405.2 403.8 405.3 407.3 405.7 410.8 406.2 414.3 406.4 417.8 406.2 421.3 406 424.8 405.8 428.3 405.7 431.8 405.6 435.3 405.4 438.8 405.4 442.3 405.5 445.8 405.3 449.3 405.3 452.8 405.6 456.3 406.3 459.8 407.1 463.3 407.8 466.8 408.1 470.3 408 474 407.6 477.6 406.6 481.4 404.4 484.8 401.6 487.6 397.8 488.8 393.8 487.6 390.1 484.1 386.8 481.9 383.8 483.1 380.3 486.2 376.8 488 373.3 488.4 369.8 488.5 366.3 489 362.8 489.7 359.3 490.3 355.8 490.6 352.3 490.7 348.8 490.9 345.3 491.2 341.8 491.6 338.3 491.9 334.8 492.2 331.3 492.3 327.8 492.1 324.3 491.8 320.8 491.4 317.3 491.2 313.8 490.9 310.3 490.6 306.8 490.2 303.3 489.4 299.8 488.6 296.3 488 292.8 488.1 289.3 488.6 285.8 489 282.3 488.9 278.8 488.4 275.3 487.7 271.8 487 268.3 486.6 264.8 486.1 261.3 485.7 257.8 485.3 254.3 484.9 250.8 484.5 247.3 484.4 243.8 484.7 240.3 485.2 236.8 485.8 233.3 486.4 229.8 486.8 226.3 487 222.8 487.2 219.3 487.5 215.8 488 212.3 488.6 208.8 488.9 205.3 489 201.8 489.1 198.3 489.2 194.8 489.3 191.3 489.3 187.8 489.3 184.3 489.3 180.8 489.3 177.3 489.3 173.8 489.3 170.3 489.3 166.8 489.5 163.3 489.8 159.8 490.1 156.3 490.2 152.8 490.1 149.3 490 145.8 490.1 142.3 490.2 138.8 490.4 135.4 490.6 131.9 490.7 128.4 490.8 124.8 491 121.2 490.8 117.6 490.2 114.3 488.9 111.2 486.8 108.7 484.2 106.9 481 106.1 477.5 105.6 473.9 105.2 470.4 105 466.9 104.8 463.4 105 459.9 105.2 456.4 105.4 452.9 105.7 449.4 106.1 445.9 106.5 442.4 106.8 438.9 107.1 435.4 107.5 431.9 108.1 428.4 108.4 424.9 108.2 421.4 107.6 417.9 107 414.4 106.3 410.9 105.9 407.4 105.4 403.9 105 400.4 104.6 396.9 104.3 393.4 104.1 389.9 104.1 386.4 104.2 382.9 104.6 379.4 105 375.9 105.2 372.4 105.4 368.9 105.6 365.4 105.7 361.9 105.9 358.4 105.9 354.9 105.9 351.4 105.9 347.9 105.8 344.4 105.8 340.9 105.7 337.4 105.7 333.9 105.9 330.4 106 326.9 106.1 323.4 106.1 319.9 106.2 316.4 106.3 312.9 106.3 309.4 106.2 305.9 106.1 302.4 106 298.9 106 295.4 106.1 291.9 106.1 288.4 106.1 284.9 106.1 281.4 106 277.9 105.9 274.4 105.8 270.9 105.4 267.4 105.2 263.9 105.9 260.4 107.7 256.9 109.5 253.4 109.6 249.9 107.9 246.4 106.1 242.9 105.2 239.4 104.9 236 104.7 232.5 104.5 229 104.5 225.5 104.5 222 104.5 218.5 104.5 215 104.6 211.5 104.8 208 104.9 204.5 105.1 201 105.2 197.5 105.2 194 105.1 190.5 105 187 105 183.5 105.1 180 105.3 176.5 105.2 173 105.1 169.5 104.9 166 104.7 162.5 104.5 159 104.1 155.5 103.7 152 103.5 148.5 103.6 145 103.6 141.5 103.7 138 103.8 134.5 103.8 131 103.8 127.5 103.8 124 103.9 120.5 104.1 117 104.4 113.5 104.4 110 104.3 106.5 104.3 103 104.4 99.5 104.8 96 105.5 92.5 106.2 89 106.8 85.5 107.2 82 107.5 78.5 107.7 75 108 71.5 108.2 68 108.4 64.5 108.5 61 108.4 57.5 108.3 54 108.2 50.5 108.2 47 108.4 43.5Z"/><path fill="#7e2216" opacity=".06" clip-path="url(#b)" d="M217.4 169.6Q220.5 162.4 230 154.8Q239.5 147.2 255.5 148.7Q271.6 150.1 275.5 160.4Q279.3 170.7 275.7 178.1Q272.2 185.5 265.6 190.6Q259 195.7 247.3 201.3Q235.6 206.9 225.3 200.2Q215 193.5 214.7 185.2Q214.3 176.9 217.4 169.6ZM193.6 171.3Q198.2 177.9 201.3 184.8Q204.4 191.6 200.2 198.8Q196.1 205.9 187.1 213Q178.1 220 165 217.1Q152 214.1 145.4 203.2Q138.9 192.4 143.2 181.2Q147.4 170 158.9 167.1Q170.4 164.2 179.7 164.4Q189.1 164.7 193.6 171.3ZM246.9 135.7Q263.9 136.4 264.1 149.4Q264.3 162.4 263.2 170Q262.1 177.6 257 185.6Q251.9 193.6 238.1 198.9Q224.3 204.1 210.9 197.2Q197.4 190.2 197.3 178.8Q197.1 167.3 196.9 154.4Q196.7 141.6 213.3 138.3Q230 134.9 246.9 135.7ZM306.6 195.6Q310.6 200.2 307.5 205.2Q304.5 210.2 297.4 210.9Q290.4 211.5 284.5 211.8Q278.6 212.1 276.1 208.4Q273.6 204.8 269 200.4Q264.4 196 270.5 192.9Q276.6 189.7 283.3 187.6Q289.9 185.6 296.3 188.3Q302.7 191 306.6 195.6ZM274.6 203Q288.8 205.2 300.2 211.5Q311.5 217.9 318.4 230.8Q325.3 243.7 314.2 253.1Q303.1 262.6 292.7 263.4Q282.3 264.3 273.2 263.8Q264.1 263.3 259.5 255.3Q254.9 247.4 246.7 234.8Q238.5 222.2 249.4 211.5Q260.3 200.8 274.6 203ZM141.1 114.6Q140 104 152.1 97.4Q164.3 90.9 175.5 97.9Q186.7 104.9 202 105.4Q217.3 105.8 215.7 116.5Q214.1 127.3 209.1 137Q204.2 146.7 190.4 144.8Q176.7 142.9 164.9 142.4Q153.1 141.9 147.7 133.5Q142.3 125.2 141.1 114.6ZM175.5 395.6Q173.7 416 184.9 433.9Q196.2 451.7 180.5 465.9Q164.9 480.2 145.9 474.6Q126.9 469.1 114 459.2Q101.2 449.4 104.5 434.6Q107.8 419.8 110.4 407Q113 394.3 125.3 380Q137.5 365.7 157.4 370.4Q177.3 375.1 175.5 395.6ZM251.6 136.2Q244.6 131.2 250.5 125Q256.4 118.9 261.3 114.9Q266.1 110.9 273.5 109.5Q280.9 108.2 287.1 114.4Q293.2 120.6 289.3 128.5Q285.4 136.5 283.2 143.8Q281 151.2 273.3 155.1Q265.6 159.1 262.1 150.2Q258.6 141.2 251.6 136.2ZM230.4 99Q242.4 91.2 251.7 86.2Q261 81.2 272 83.6Q283 86 298.8 89.1Q314.6 92.2 308.8 102.7Q303.1 113.2 293.4 117.8Q283.7 122.4 273.5 126.8Q263.4 131.3 252.4 126.9Q241.5 122.5 229.9 114.6Q218.4 106.7 230.4 99ZM322.4 337Q308.4 336.8 304.6 327Q300.8 317.2 305.3 309.2Q309.7 301.2 317.9 295.8Q326.1 290.4 341.7 282.5Q357.3 274.6 362 287.8Q366.7 301.1 377.8 310.7Q388.9 320.4 381.1 332.9Q373.2 345.5 354.8 341.3Q336.4 337.2 322.4 337ZM190.5 112Q196.4 117.3 196.3 122.4Q196.2 127.5 196.6 133.8Q197 140.1 187.6 142.7Q178.2 145.4 166.2 145.5Q154.2 145.7 152.5 138Q150.8 130.3 150.5 124.2Q150.2 118.1 157 113.4Q163.8 108.6 174.3 107.6Q184.7 106.7 190.5 112ZM324.5 245.2Q332.4 239.4 340.7 235.5Q349 231.6 358.4 235.1Q367.8 238.7 372 247.8Q376.2 257 371 265Q365.7 272.9 358.9 277.9Q352.2 282.8 342.9 283.5Q333.6 284.2 329.3 276.2Q325 268.3 320.8 259.6Q316.6 250.9 324.5 245.2ZM250.9 142.5Q244.1 148 237.5 142.2Q230.9 136.4 229.3 129.9Q227.7 123.3 228.7 117Q229.6 110.7 234 102.2Q238.5 93.8 249.2 94.2Q259.9 94.6 267.3 102Q274.6 109.4 274.2 119Q273.8 128.6 265.8 132.8Q257.8 137 250.9 142.5ZM154.2 208.2Q142.1 193.7 161.4 185.8Q180.7 178 198.3 176.8Q215.9 175.6 231.7 181.8Q247.6 188 257.7 201.3Q267.8 214.5 259.5 229.3Q251.2 244 231.3 244.4Q211.4 244.8 190.3 250.9Q169.1 257 167.7 239.8Q166.3 222.6 154.2 208.2Z"/><path fill="#f8f1e3" d="M187 65.3 186.6 63.4 188.9 62.8 192 62.7 195.2 62.9 198.4 62.9 201.6 62.7 204.7 62.6 207.5 63.6 209.5 65.8 210.9 68.7 212.1 71.7 213.5 74.5 214.9 77.4 216.3 80.3 217.8 83.1 219.3 86 220.8 88.8 222.4 91.6 224 94.4 225.8 97.1 227.7 100.1 227.2 104.1 223.3 104.6 220 104.6 216.8 104.7 213.6 104.6 210.4 104.3 207.2 103.9 204.3 102.7 202.4 100.2 200.9 97.4 199.2 94.7 197.7 91.9 196.3 89 194.9 86.1 193.4 83.3 191.8 80.5 190.5 77.5 189.7 74.4 188.7 71.3 187.6 68.3ZM303 66.1 304.7 63.7 307.3 62.3 310.4 62 313.7 62.2 316.9 62 320.1 61.8 323.3 61.7 326.6 62.5 326.8 65.8 325.3 68.8 324.1 71.7 322.7 74.6 321 77.4 319.4 80.1 318.2 83.1 317 86.1 315.7 89 314.1 91.8 312.7 94.7 311.2 97.5 309.7 100.4 307.7 102.8 304.7 103.8 301.6 103.9 298.3 104 295.1 104 291.9 103.6 288.8 103.3 286.3 102.8 286.4 100.5 287.6 97.7 288.5 94.6 289.7 91.5 291.1 88.7 292.6 85.8 293.9 82.9 295.3 80 296.7 77.1 297.8 74.1 299.3 71.3 301 68.5ZM163.4 116.4 164.7 113.2 168 112.4 171.2 112.4 174.4 112.3 177.6 112.3 180.8 112.2 184 112.2 187.2 112.1 190.5 111.9 193.7 111.9 196.9 112.1 200.1 112.1 203.3 111.9 206.5 111.8 209.7 111.6 212.9 111.3 216.1 111.2 219.4 111.2 222.6 111.2 225.8 111.3 229 111.4 232.2 111.2 235.4 110.8 238.6 110.9 241.8 111.3 245.1 111.4 248.3 111.2 251.5 111 254.7 111.2 257.9 111.5 261.1 111.6 264.3 111.9 267.5 112 270.7 111.9 274 111.8 277.2 112 280.4 112.3 283.6 112.1 286.8 111.6 290 111.4 293.2 112 296.4 112.4 299.7 112.2 302.9 112 306.1 111.9 309.3 111.6 312.5 111.5 315.7 111.9 318.9 112.2 322.1 112 325.3 111.7 328.6 111.7 331.8 111.7 335 111.8 338.2 112 341.4 112.2 344.6 112.6 347 114.2 347.7 117.1 348.1 120.3 348.1 123.5 347.9 126.7 347.6 129.9 347.3 132.9 345.4 134.8 342.4 134.8 339.2 134.4 336 134.3 332.8 134.4 329.6 134.6 326.4 135 323.2 135.6 319.9 135.7 316.7 135.6 313.5 135.5 310.3 135.9 307.1 136.3 303.9 136.5 300.7 136.7 297.5 136.8 294.2 136.6 291 136.5 287.8 136.8 284.6 137.1 281.4 137 278.2 137 275 136.8 271.8 136.4 268.6 136.2 265.3 136.4 262.1 136.6 258.9 136.5 255.7 136.2 252.5 136.2 249.3 136.3 246.1 136.3 242.9 136.1 239.6 136 236.4 136.2 233.2 136.6 230 136.5 226.8 136.3 223.6 136.1 220.4 136 217.2 135.9 214 136 210.7 136.2 207.5 136.2 204.3 135.9 201.1 135.8 197.9 136 194.7 136.2 191.5 136.3 188.3 136.5 185 136.3 181.8 135.9 178.6 135.6 175.4 135.3 172.2 135.1 169 135.1 166 134.9 164.2 132.5 163.9 129.3 163.7 126.1 163.6 122.9 163.4 119.7ZM146.2 157.4 147.1 154.6 150 153.5 153.2 153.2 156.4 152.9 159.6 152.6 162.8 152.3 166 152.1 169.2 152.2 172.4 152.5 175.6 152.9 178.8 153.5 182 154 185.2 154.4 188.4 154.7 191.7 154.5 194.9 153.9 198.1 153.7 201.3 153.9 204.5 153.7 207.7 152.9 210.9 152.2 214.1 152.1 217.3 152.4 220.5 152.5 223.7 152.8 226.9 153.1 230.1 153.6 233.3 154 236.5 153.9 239.8 153.7 243 153.6 246.2 153.8 249.4 153.9 252.6 154.3 255.8 154.6 259 154.5 262.2 154.4 265.4 154.5 268.6 154.5 271.8 154.4 275 153.9 278.2 153.3 281.4 153.3 284.7 153.3 287.9 153.2 291.1 153.2 294.3 153.3 297.5 153.6 300.7 154 303.9 154.4 307.1 154.8 310.3 155 313.5 155 316.7 154.8 319.9 154.4 323.1 153.9 326.3 153.6 329.5 153.3 332.8 153.1 336 153.1 339.2 153.2 342.4 153.4 345.6 153.7 348.8 153.9 352 154 355.2 154.2 358.4 154.1 361.5 153.9 364.2 154.7 365.2 157.1 365.1 160.2 364.7 163.4 364.6 166.6 364.6 169.8 364.7 173 364.6 175.7 363.1 177.2 360.4 177.4 357.2 177.4 354 177.4 350.8 177.4 347.6 177.4 344.4 177.2 341.2 177 338 177.2 334.8 177.4 331.6 177.5 328.4 177.6 325.2 177.7 322 177.9 318.7 178.1 315.5 178.2 312.3 178.2 309.1 178.3 305.9 178.4 302.7 178.6 299.5 178.8 296.3 178.9 293.1 178.9 289.9 178.7 286.7 178.5 283.5 178.4 280.3 178.3 277.1 178.4 273.8 178.5 270.6 178.3 267.4 177.8 264.2 177.5 261 177.3 257.8 177.2 254.6 177.2 251.4 177.2 248.2 177.2 245 177.2 241.8 177.3 238.6 177.8 235.4 178.2 232.2 178.3 229 178.3 225.7 178.3 222.5 178.3 219.3 178.4 216.1 178.7 212.9 178.9 209.7 178.9 206.5 178.9 203.3 178.9 200.1 179 196.9 179.1 193.7 179.4 190.5 179.7 187.3 179.6 184.1 179.6 180.8 179.6 177.6 179.7 174.4 179.7 171.2 179.2 168 178.8 164.8 178.9 161.6 179 158.4 179.1 155.2 179.3 152 179.3 148.8 178.5 146.8 176.4 146.5 173.4 146.4 170.2 146.6 167 146.9 163.8 147 160.6ZM242.3 105.7 243.8 101.9 247.6 100.7 251.1 100.7 254.3 100.7 257.5 100.6 260.6 100.4 264.1 100.3 267.9 101.7 269.2 105.5 269.2 108.9 269.4 112.1 269.4 115.3 269 118.5 268.6 121.7 268.7 124.9 268.7 128.1 268.6 131.3 268.4 134.5 268.1 137.7 267.5 140.9 267 144.1 267.1 147.3 267.4 150.5 267.5 153.7 267.3 156.9 267.3 160.1 267.6 163.3 267.9 166.4 268 169.6 268.1 172.8 268.1 176 268.2 179.2 268.1 182.4 267.4 185.6 266.8 188.8 266.7 192 266.9 195.2 267 198.4 267.4 201.6 267.9 204.8 268.1 208 268.2 211.2 268.5 214.4 268.4 217.8 266 220.4 262.6 221.1 259.3 221.2 256.1 220.9 252.9 220.6 249.7 220.4 246.4 220.2 243.9 218 243.5 214.7 243.6 211.5 243.8 208.3 244 205.1 244.3 201.9 244.9 198.7 245.1 195.5 245.2 192.3 245.2 189.1 245.1 185.9 245 182.7 245.1 179.5 245.3 176.3 245.4 173.1 245.5 169.9 245.5 166.7 245.1 163.5 244.4 160.3 243.9 157.2 243.3 154 242.8 150.8 242.6 147.6 242.6 144.4 242.8 141.2 243.1 138 243.3 134.8 243.5 131.6 243.7 128.4 243.4 125.2 243.1 122 243.2 118.8 243.3 115.6 243.2 112.4 242.9 109.2ZM244.5 258.1 245.3 255.7 247.7 255.1 250.7 254.9 253.9 254.5 257.1 254.3 260.2 254.2 263.4 254.1 266.4 254.6 268 257 268.3 260.1 268.5 263.3 268.7 266.5 269.4 269.6 269.9 272.8 269.9 276.2 268.3 279.8 264.7 281.1 261.3 281 258.1 280.9 254.9 280.7 251.8 280.6 248.5 280.7 245 280.4 242.8 277.4 242.9 273.9 243.2 270.7 243.5 267.5 243.8 264.4 244.1 261.2ZM147.2 293.2 147.7 290.7 150 289.5 153.2 289.3 156.4 289.3 159.6 289.1 162.8 289 166 288.9 169.2 288.9 172.4 289.1 175.6 289.3 178.8 289.5 182 289.7 185.2 290 188.4 290.2 191.7 290 194.9 289.6 198.1 289.3 201.3 289.2 204.5 288.9 207.7 288.8 210.9 288.7 214.1 288.4 217.3 288.4 220.5 288.5 223.7 288.7 226.9 288.9 230.1 289 233.3 289 236.5 289.4 239.8 289.6 243 289.6 246.2 289.6 249.4 289.5 252.6 289.4 255.8 289.3 259 289 262.2 288.8 265.4 288.8 268.6 288.9 271.8 288.9 275 288.9 278.2 288.9 281.4 288.7 284.6 288.5 287.9 288.4 291.1 288.1 294.3 288 297.5 288.1 300.7 288.1 303.9 288 307.1 287.7 310.3 287.8 313.5 288.4 316.7 288.9 319.9 288.9 323.1 288.9 326.3 289.4 329.5 290 332.8 290.3 336 290.1 339.2 290.1 342.4 290.2 345.6 290.4 348.8 290.3 352 290.3 355.2 290.3 358.4 290.5 361.4 290.5 364 290.6 365.4 292.7 365.7 295.8 366 299 366.2 302.2 366.3 305.4 366.1 308.7 363.8 311.2 360.5 311.7 357.2 311.9 354 312 350.8 312.2 347.6 312.2 344.4 312.2 341.2 312.3 338 312.1 334.8 311.7 331.6 311.2 328.4 310.7 325.2 310.3 322 310.1 318.7 310 315.5 310.1 312.3 310.2 309.1 310.3 305.9 310.4 302.7 310.7 299.5 310.9 296.3 310.9 293.1 310.9 289.9 310.7 286.7 310.2 283.5 310 280.3 310.1 277.1 310.2 273.9 309.9 270.6 309.6 267.4 309.7 264.2 310 261 310.3 257.8 310.8 254.6 311.1 251.4 311.3 248.2 311.3 245 311.2 241.8 311.1 238.6 311 235.4 311 232.2 310.9 229 310.7 225.7 310.5 222.5 310.5 219.3 310.7 216.1 310.9 212.9 311.3 209.7 311.6 206.5 311.5 203.3 311.3 200.1 311.3 196.9 311.4 193.7 311.5 190.5 311.4 187.3 311.4 184.1 311.6 180.9 311.7 177.6 312 174.4 312.6 171.2 312.7 168 312.3 164.8 312 161.6 311.6 158.4 311.1 155.2 311.1 152 311.5 148.6 311.4 146.1 309.1 146 305.8 146.3 302.6 146.6 299.4 146.8 296.2ZM155.7 329.7 157.4 326 161.2 325 164.6 325.4 167.8 326 171 326.4 174.2 326.5 177.4 326.6 180.2 327 181.7 329 182.1 332 182.7 335.2 183 338.4 182.9 341.6 182.8 344.8 182.9 348 183 351.2 182.9 354.4 182.8 357.7 182.7 360.9 182.9 364.1 183 367.3 182.7 370.5 182.3 373.7 182.5 376.9 183 380.1 183.4 383.4 183.6 386.6 183.8 389.8 183.7 393 183.5 396.2 183.4 399.4 183.3 402.6 183 405.8 182.7 409.1 182.4 412.3 182.4 415.5 182.6 418.7 182.6 421.9 182.5 425.1 182.4 428.3 182.1 431.5 181.9 434.8 181.9 438 182.1 441.2 182.1 444.4 182.1 447.4 180.2 449.7 177.1 450 173.8 450.2 170.6 450.7 167.4 451.3 164.2 451.3 160.8 450.7 157.9 448.9 156.9 445.7 157 442.4 157.4 439.2 157.6 436 158 432.8 158.7 429.6 158.8 426.4 158.3 423.2 157.9 420 158 416.7 158.3 413.5 158.2 410.3 157.9 407.1 157.9 403.9 158.1 400.7 158.3 397.5 158.4 394.3 158.3 391 158.3 387.8 158.2 384.6 158.1 381.4 158.3 378.2 158.2 375 158 371.8 157.9 368.6 157.7 365.3 157.6 362.1 157.5 358.9 157.1 355.7 156.6 352.5 156.4 349.3 156.2 346.1 156.1 342.9 156.3 339.6 156.4 336.4 156 333.2ZM331.4 330.1 332.3 327.3 335 326.4 338.2 326.5 341.4 326.7 344.6 326.7 347.8 326.3 350.9 326.4 352.6 328.8 352.6 332 352.7 335.2 353 338.4 353.2 341.6 353.3 344.8 353.4 348 353.6 351.2 353.9 354.4 354 357.7 354.2 360.9 354.3 364.1 354.3 367.3 354.4 370.5 354.1 373.7 353.8 376.9 353.6 380.1 353.3 383.4 353.1 386.6 353 389.8 352.9 393 352.9 396.2 353 399.4 353 402.6 353 405.8 352.9 409.1 352.8 412.3 352.6 415.5 352.6 418.7 352.7 421.9 352.7 425.1 352.6 428.3 352.6 431.5 352.4 434.8 352.2 438 352.5 441.2 353 444.4 352.7 447.6 350.5 449.4 347.4 449.5 344.2 449.9 341 450.3 337.8 449.9 334.7 449.3 332.2 448.3 331.2 445.6 331.1 442.4 331.3 439.2 331.5 436 331.7 432.8 332 429.6 332.2 426.4 332.3 423.2 332.2 419.9 331.9 416.7 331.4 413.5 330.8 410.3 330.1 407.1 329.8 403.9 329.7 400.7 329.8 397.5 330.3 394.2 330.7 391 330.6 387.8 330.5 384.6 330.6 381.4 331.1 378.2 331.2 375 331 371.8 330.8 368.5 330.7 365.3 330.6 362.1 330.4 358.9 330.3 355.7 330.3 352.5 330.2 349.3 330.3 346.1 330.3 342.8 330.3 339.6 330.6 336.4 331.2 333.2ZM243.9 329.9 245.1 326.4 248.5 325 251.9 325 255.1 325.2 258.3 325.3 261.5 325.2 264.9 325.4 267.8 327.7 268.5 331.3 268.3 334.5 267.7 337.7 267.4 340.9 267.3 344.1 267.2 347.3 267.4 350.5 267.6 353.6 267.5 356.8 267.4 360 267.2 363.2 266.9 366.4 266.5 369.6 266.5 372.7 266.5 375.9 266.6 379.1 266.6 382.3 266.7 385.5 266.7 388.7 266.6 391.9 266.6 395 266.5 398.2 266.5 401.4 266.9 404.6 267.3 407.8 267.3 411 267.4 414.2 267.4 417.3 267.5 420.5 267.5 423.7 267.4 426.9 267.4 430.1 267.5 433.3 267.6 436.4 267.6 439.6 267.8 442.8 267.8 446.1 266.3 449 263.2 449.5 260.1 449.5 256.9 449.7 253.7 449.5 250.6 449.1 247.8 448.7 246.3 447.2 246.2 444.6 246.1 441.5 245.9 438.3 245.7 435.1 245.5 431.9 245.3 428.7 245.3 425.5 245.2 422.4 245.2 419.2 245.2 416 245 412.8 244.6 409.6 244.3 406.4 244.2 403.3 244.2 400.1 244.3 396.9 244.5 393.7 244.7 390.5 244.9 387.3 245.2 384.1 245.1 381 244.8 377.8 244.9 374.6 245 371.4 245.2 368.2 245.3 365 245.5 361.8 245.9 358.7 246.3 355.5 246.3 352.3 245.6 349.1 245.1 345.9 244.8 342.7 244.5 339.6 244.2 336.4 244.1 333.2ZM159.3 330.4 159.7 328 162.1 326.8 165.2 326.4 168.4 326 171.6 325.7 174.8 325.4 178 325.2 181.2 325.3 184.4 325.3 187.6 325.3 190.8 325.2 194 325.1 197.2 325.3 200.5 325.4 203.7 325.3 206.9 325.2 210.1 325.3 213.3 325.7 216.5 325.9 219.7 325.9 222.9 325.9 226.1 325.7 229.3 325.4 232.5 325.4 235.7 325.5 238.9 325.7 242.1 326.5 245.4 327.1 248.6 327.1 251.8 326.9 255 326.8 258.2 326.5 261.4 326.3 264.6 326.6 267.8 326.8 271 326.8 274.2 326.8 277.4 326.7 280.6 326.1 283.8 325.8 287 325.8 290.3 325.8 293.5 325.7 296.7 325.9 299.9 325.9 303.1 326.1 306.3 326.3 309.5 326.6 312.7 327 315.9 327.4 319.1 327.7 322.3 327.9 325.5 327.7 328.7 327.4 331.9 326.8 335.2 326.2 338.4 326 341.6 326 344.8 325.8 348 325.7 351.3 325.9 354.2 327.9 354.8 331.3 354.8 334.6 354.8 337.8 354.7 341 354.6 344.2 354.2 347.6 351.8 349.9 348.4 349.9 345.2 349.5 342 349 338.8 348.8 335.6 349.1 332.4 349.2 329.2 349.2 326 349.4 322.8 349.7 319.6 350.1 316.4 350.5 313.2 350.5 309.9 350.5 306.7 350.7 303.5 350.8 300.3 350.5 297.1 350.3 293.9 350 290.7 349.5 287.5 349.2 284.3 349 281.1 349 277.9 349.3 274.7 349.9 271.5 350.2 268.3 350.2 265 350.2 261.8 350.4 258.6 350.5 255.4 350.7 252.2 351.2 249 351.3 245.8 351.2 242.6 351.2 239.4 351.3 236.2 351.2 233 351.1 229.8 350.9 226.6 350.7 223.4 350.6 220.1 350.5 216.9 350.3 213.7 350.1 210.5 350.1 207.3 350.3 204.1 350.2 200.9 349.7 197.7 349.3 194.5 349.3 191.3 349.3 188.1 349.3 184.9 349.4 181.7 349.4 178.4 349.7 175.2 349.8 172 349.6 168.8 349.3 165.6 349.3 162.5 349.2 159.8 348.5 158.6 346.1 158.5 343 158.6 339.8 158.6 336.6 158.8 333.4ZM156.3 379.4 157.8 375.5 161.7 374.1 165.1 374.2 168.3 374.4 171.5 374.5 174.7 375 177.9 375.3 181.1 375.1 184.3 375 187.5 375.3 190.7 376 193.9 376.5 197.1 376.7 200.3 376.7 203.5 377 206.7 377.1 209.9 376.9 213.1 376.3 216.3 375.9 219.5 375.8 222.7 375.8 225.9 375.7 229.1 375.6 232.3 375.4 235.5 375.1 238.7 374.8 241.9 374.8 245.1 374.8 248.3 374.6 251.5 374.5 254.7 374.4 257.9 374.3 261.1 374.4 264.3 374.5 267.5 374.7 270.7 374.8 273.9 374.9 277.1 375 280.3 375.1 283.5 375.2 286.7 375.5 289.9 375.8 293.1 376 296.3 376.2 299.5 376.3 302.7 376 305.9 375.9 309.1 375.9 312.3 375.8 315.5 375.9 318.7 376.2 321.9 376.2 325.1 376 328.3 375.9 331.5 375.9 334.7 375.9 337.9 376 341.1 376.2 344.3 376.2 347.5 376.3 350.6 376.3 352.7 377.7 353 380.4 353.3 383.5 354 386.7 354.2 389.9 353.9 393.1 353.6 396.3 353 399.3 350.2 400.9 346.9 400.9 343.7 400.6 340.5 400.5 337.3 400.6 334.1 400.6 330.9 400.8 327.7 400.9 324.5 400.8 321.3 400.7 318.1 400.5 314.9 400.3 311.7 400.2 308.5 400.1 305.3 399.9 302.1 400 298.9 400.2 295.7 400.4 292.5 400.2 289.3 400 286.1 400.2 282.9 400.6 279.7 400.7 276.5 400.9 273.3 401 270.1 400.8 266.9 400.7 263.7 400.8 260.5 400.8 257.3 400.6 254.1 400.4 250.9 400.1 247.7 400.1 244.5 400 241.3 399.7 238.1 399.6 234.9 399.6 231.7 399.6 228.5 399.6 225.3 399.6 222.1 399.5 218.9 399.8 215.7 400.1 212.5 400.1 209.3 399.8 206.1 399.8 202.9 400.4 199.7 401 196.5 401.1 193.3 401.2 190.1 401.2 186.9 401.2 183.7 401.1 180.5 400.4 177.3 399.7 174.1 399.4 170.9 399.2 167.7 399.1 164.5 399.1 161.5 399.3 159.2 398.3 158.3 395.6 157.8 392.5 157.2 389.3 156.8 386.1 156.4 382.9ZM158 430.3 158.9 427.2 161.9 426 165.2 426 168.4 426.1 171.6 426.2 174.8 426.1 178 426 181.2 425.9 184.4 425.6 187.6 425.7 190.8 426.1 194 426.3 197.2 426 200.4 425.8 203.6 426.1 206.8 426.5 210 426.6 213.2 426.6 216.5 426.7 219.7 426.5 222.9 426.4 226.1 426.4 229.3 426.5 232.5 426.6 235.7 426.9 238.9 427 242.1 427.2 245.3 427.4 248.5 427.4 251.7 427.3 254.9 427.1 258.1 426.7 261.3 426.4 264.5 426.1 267.7 425.9 270.9 425.7 274.2 425.6 277.4 425.7 280.6 426.1 283.8 426.3 287 426.2 290.2 426.1 293.4 426.4 296.6 426.8 299.8 426.8 303 426.2 306.2 425.8 309.4 426 312.6 426.2 315.8 425.7 319 425.1 322.2 424.9 325.4 424.8 328.6 424.8 331.8 425.1 335.1 425.3 338.3 425.5 341.5 425.7 344.7 425.8 347.9 426 351.1 426.2 354 427.9 354.9 431.2 355.2 434.5 355.6 437.7 355.6 440.9 355.2 444.2 354.6 447.7 351.9 450.2 348.5 450.2 345.2 449.8 342 449.4 338.8 449.1 335.6 449 332.4 449 329.2 448.8 326 448.6 322.8 448.7 319.6 448.8 316.4 448.9 313.2 449.1 310 449.2 306.8 449.2 303.6 449.2 300.4 449.4 297.2 449.7 293.9 449.8 290.7 449.5 287.5 449.3 284.3 449.6 281.1 449.8 277.9 449.7 274.7 449.6 271.5 449.4 268.3 448.9 265.1 448.6 261.9 448.6 258.7 448.6 255.5 448.7 252.3 448.7 249.1 448.7 245.9 448.6 242.7 448.6 239.5 448.6 236.2 448.7 233 448.9 229.8 449.1 226.6 449.2 223.4 449 220.2 448.8 217 449.1 213.8 449.6 210.6 449.5 207.4 449.4 204.2 449.2 201 449 197.8 448.7 194.6 448.9 191.4 449.3 188.2 449.3 185 449.3 181.8 449.6 178.5 449.7 175.3 450 172.1 450.4 168.9 450.8 165.7 451 162.4 451 158.7 450 157 446.5 157.1 443.1 157.3 439.9 157.4 436.7 157.6 433.5Z"/><path fill="#b93a2b" d="M259.2 201.2Q260.1 202.3 260.5 203.6Q260.9 204.9 260.1 206Q259.2 207.1 257.9 206.9Q256.7 206.7 255.8 205.7Q255 204.6 255.6 203.5Q256.3 202.3 257.2 201.2Q258.2 200 259.2 201.2ZM170 364.7Q170.9 364.7 171.6 365.3Q172.3 366 171.7 366.8Q171.1 367.6 169.9 367.8Q168.6 367.9 167.9 367Q167.1 366 168.1 365.4Q169.1 364.7 170 364.7ZM317.5 303.8Q317.4 304.4 316.9 305Q316.3 305.6 315.1 305.3Q314 304.9 313.9 304.2Q313.8 303.4 314.8 303.1Q315.8 302.7 316.6 303Q317.5 303.3 317.5 303.8ZM324.8 173.6Q325 173 325.8 172.7Q326.6 172.4 327.2 173Q327.8 173.7 327.6 174.6Q327.5 175.4 326.4 175.5Q325.4 175.6 325 174.9Q324.6 174.3 324.8 173.6Z"/><path fill="#f8f1e3" d="M213.5 29.1Q213.6 29.3 213.5 29.5Q213.4 29.8 213.1 29.7Q212.7 29.7 212.6 29.4Q212.5 29.2 212.6 28.9Q212.7 28.7 213.1 28.8Q213.4 28.9 213.5 29.1ZM394.1 72.2Q393.9 71.8 394.1 71.4Q394.2 71 394.7 71.1Q395.2 71.2 395.4 71.5Q395.7 71.8 395.4 72Q395.2 72.3 394.8 72.4Q394.4 72.6 394.1 72.2ZM123.7 391.6Q124.1 391.5 124.6 391.6Q125 391.6 125 392.1Q125 392.5 124.6 392.7Q124.2 393 123.9 392.7Q123.6 392.5 123.4 392.1Q123.2 391.6 123.7 391.6ZM257.1 474.9Q257.8 474.5 258.4 474.7Q259.1 474.9 259.4 475.6Q259.7 476.3 259.1 477Q258.5 477.6 258 477.1Q257.4 476.5 256.9 475.9Q256.4 475.3 257.1 474.9ZM162.9 480.6Q162.7 478.7 164.4 477.6Q166.2 476.5 167.9 477.5Q169.7 478.5 169.2 480.3Q168.6 482 167.4 482.8Q166.3 483.6 164.7 483.1Q163.1 482.6 162.9 480.6ZM215 40.9Q215.5 40.9 215.8 41.2Q216.2 41.5 215.9 41.9Q215.6 42.3 215 42.2Q214.4 42.2 214.3 41.8Q214.2 41.4 214.4 41.1Q214.6 40.8 215 40.9ZM253.9 30.1Q253.8 28.8 254.6 27.7Q255.3 26.6 256.5 27.3Q257.7 27.9 258 28.9Q258.3 29.9 257.7 31Q257 32.1 255.5 31.7Q254 31.3 253.9 30.1ZM136.3 257.1Q137.4 257.7 137.5 258.7Q137.6 259.7 135.9 259.9Q134.2 260.1 133.2 259.5Q132.2 258.9 132.1 257.9Q132.1 256.9 133.6 256.8Q135.2 256.6 136.3 257.1ZM149.7 463.9Q149.2 463.5 149.1 463.1Q149 462.6 149.3 462.1Q149.7 461.7 150.3 461.9Q151 462.1 151.2 462.7Q151.5 463.4 150.9 463.8Q150.3 464.3 149.7 463.9ZM373.6 213.7Q373.2 213.7 373.2 213.4Q373.2 213.1 373.4 212.8Q373.6 212.6 373.9 212.7Q374.3 212.8 374.4 213.1Q374.4 213.4 374.2 213.5Q374 213.7 373.6 213.7ZM259.4 480.8Q259.8 480.9 259.5 481.2Q259.2 481.5 258.9 481.7Q258.6 481.9 258.3 481.6Q258 481.3 258.2 481Q258.4 480.7 258.7 480.6Q259 480.6 259.4 480.8ZM386.1 429.9Q386.3 430.5 385.8 430.8Q385.2 431.2 384.7 430.8Q384.1 430.5 384.1 429.8Q384 429.2 384.6 428.8Q385.2 428.5 385.6 429Q386 429.4 386.1 429.9ZM181.5 28.6Q182.3 28.8 182.2 29.5Q182.2 30.1 181.4 30.4Q180.7 30.7 180.1 30.3Q179.6 29.9 179.2 29.3Q178.9 28.7 179.8 28.5Q180.7 28.3 181.5 28.6ZM394.7 224.8Q394.5 224.5 394.9 224.3Q395.2 224.1 395.6 224.2Q395.9 224.2 396.1 224.5Q396.3 224.8 396 225.1Q395.6 225.4 395.2 225.3Q394.8 225.1 394.7 224.8ZM381.6 51.5Q381.8 51.3 382.1 51.1Q382.4 51 382.8 51.2Q383.2 51.4 383 51.8Q382.9 52.3 382.4 52.3Q381.9 52.4 381.7 52.1Q381.4 51.8 381.6 51.5ZM116.5 200.2Q116.5 200.5 116 200.7Q115.5 200.8 115.2 200.4Q115 200 115.2 199.6Q115.4 199.2 115.8 199.3Q116.2 199.3 116.4 199.6Q116.6 199.9 116.5 200.2ZM396.2 218.7Q396.6 218.4 396.9 218.7Q397.3 218.9 397.5 219.3Q397.6 219.7 397 219.8Q396.3 219.9 395.9 219.7Q395.5 219.5 395.6 219.2Q395.8 218.9 396.2 218.7ZM180.1 28.1Q181.1 27.9 181.6 28.7Q182 29.4 181 29.7Q180 30 179.2 30.1Q178.4 30.1 178.2 29.5Q178.1 29 178.6 28.6Q179 28.2 180.1 28.1ZM315.1 467.1Q315.2 467.4 315.1 467.6Q315.1 467.9 314.7 467.9Q314.3 468 314 467.7Q313.7 467.4 314 467.1Q314.3 466.9 314.7 466.9Q315.1 466.9 315.1 467.1ZM129.3 218.9Q129.7 219.1 129.7 219.5Q129.7 219.9 129.4 220.2Q129.2 220.6 128.6 220.4Q128.1 220.3 128.1 219.8Q128.2 219.3 128.5 219Q128.9 218.7 129.3 218.9ZM112.8 203.6Q111.8 202.9 111.3 202.3Q110.8 201.6 111.7 201.3Q112.7 201 114 200.9Q115.2 200.8 115.2 201.7Q115.1 202.5 114.5 203.4Q113.8 204.2 112.8 203.6ZM127.9 444.5Q127.5 444.4 127.3 444Q127.2 443.6 127.6 443.3Q127.9 443.1 128.4 443.1Q128.9 443.1 129 443.6Q129.2 444.1 128.7 444.3Q128.3 444.5 127.9 444.5ZM374.8 172.4Q373.5 172.6 371.8 172Q370.1 171.4 370.8 169.9Q371.6 168.4 373.5 168.5Q375.3 168.7 376.2 169.5Q377.2 170.4 376.6 171.3Q376.1 172.3 374.8 172.4ZM395.4 247.5Q395 247.4 395.1 247Q395.2 246.6 395.6 246.5Q396 246.3 396.4 246.5Q396.8 246.7 396.7 247Q396.6 247.3 396.3 247.5Q395.9 247.7 395.4 247.5ZM278.7 457.9Q278.1 457 279.2 456.4Q280.3 455.9 281.4 456.1Q282.5 456.3 283.6 457.1Q284.7 457.9 283.2 458.3Q281.8 458.8 280.5 458.8Q279.2 458.8 278.7 457.9ZM363.2 28.6Q363.5 28.8 363.6 29.2Q363.7 29.5 363.4 29.8Q363.1 30.1 362.7 30Q362.3 29.8 362.3 29.4Q362.3 29 362.6 28.7Q362.8 28.4 363.2 28.6ZM238.3 471.7Q238.6 471.3 239.2 471.4Q239.8 471.6 240.1 472Q240.4 472.5 240 473Q239.5 473.4 238.8 473.3Q238.1 473.1 238 472.6Q237.9 472.1 238.3 471.7ZM312.7 469.6Q312.6 469.3 313 469.1Q313.3 469 313.7 469.2Q314 469.4 314 469.7Q314.1 469.9 313.7 470Q313.3 470 313 469.9Q312.7 469.9 312.7 469.6ZM395 64.6Q395.2 63.4 396.3 62.6Q397.4 61.7 398.8 62.5Q400.2 63.3 399.6 64.5Q399.1 65.8 398.1 66.4Q397.1 66.9 396 66.4Q394.9 65.8 395 64.6ZM117.2 360.6Q116.9 360.8 116.5 360.5Q116.2 360.3 116.3 359.9Q116.3 359.5 116.8 359.4Q117.2 359.3 117.6 359.5Q117.9 359.8 117.7 360.1Q117.5 360.4 117.2 360.6ZM140 237.6Q139.6 237.7 139.4 237.4Q139.2 237.1 139.3 236.8Q139.4 236.5 139.9 236.5Q140.3 236.5 140.5 236.8Q140.7 237 140.6 237.2Q140.4 237.4 140 237.6ZM283.3 28.9Q285.1 30 284.3 31.4Q283.5 32.8 281.6 32.9Q279.7 33.1 278.7 32.3Q277.7 31.4 277.4 30.1Q277.2 28.8 279.4 28.3Q281.6 27.7 283.3 28.9ZM131.6 33.8Q131.3 33.5 131.3 33.3Q131.3 33 131.6 32.8Q131.9 32.6 132.2 32.8Q132.5 33.1 132.7 33.3Q132.9 33.6 132.4 33.8Q132 34 131.6 33.8ZM226.5 468.3Q226.9 468.9 226.7 469.7Q226.5 470.6 225.3 470.5Q224 470.4 223.7 469.7Q223.3 469 223.7 468.3Q224 467.7 225.1 467.7Q226.1 467.6 226.5 468.3ZM279.4 44.3Q279.1 44.3 278.6 44.2Q278.2 44.1 278.3 43.6Q278.5 43.2 278.9 43.2Q279.4 43.2 279.6 43.4Q279.9 43.6 279.8 43.9Q279.7 44.2 279.4 44.3ZM398.7 329.2Q398.5 329.5 398.3 329.5Q398 329.6 397.6 329.4Q397.3 329.2 397.5 328.9Q397.8 328.6 398.1 328.3Q398.4 328 398.7 328.4Q398.9 328.8 398.7 329.2ZM129.6 223.9Q130.5 222.6 132.1 222.8Q133.8 223 134.4 223.9Q135 224.9 134.6 225.9Q134.2 227 132.5 227.3Q130.8 227.6 129.8 226.4Q128.8 225.2 129.6 223.9ZM120.9 304.2Q120.5 303.5 121.2 303Q122 302.5 123 302.5Q124 302.5 124.2 303.3Q124.4 304 123.7 304.5Q123.1 305 122.2 304.9Q121.4 304.9 120.9 304.2ZM113.7 45.1Q114.2 45.1 114.4 45.5Q114.6 45.9 114.1 46.2Q113.7 46.6 113.2 46.3Q112.8 46.1 112.6 45.8Q112.4 45.4 112.8 45.2Q113.2 45 113.7 45.1ZM384 441.7Q384.2 442 384.3 442.4Q384.3 442.8 383.9 442.8Q383.4 442.8 383.1 442.6Q382.8 442.4 382.9 442Q382.9 441.5 383.3 441.5Q383.7 441.5 384 441.7ZM118 77.6Q117.2 78.5 116.3 78.3Q115.4 78.2 114.9 77.4Q114.5 76.7 114.9 75.8Q115.3 74.9 116.5 74.7Q117.6 74.5 118.2 75.6Q118.8 76.8 118 77.6ZM229.5 31.3Q229.3 31.7 228.8 31.7Q228.4 31.6 228 31.4Q227.6 31.2 227.8 30.8Q227.9 30.4 228.4 30.5Q228.9 30.5 229.3 30.7Q229.7 30.9 229.5 31.3ZM161 56.6Q160.7 56.5 160.6 56.2Q160.4 55.8 160.7 55.5Q160.9 55.1 161.4 55.2Q161.8 55.3 162 55.8Q162.1 56.3 161.7 56.4Q161.3 56.6 161 56.6ZM385.9 391.7Q385.4 391.8 385.1 391.6Q384.8 391.3 384.7 390.9Q384.5 390.4 385 390.4Q385.6 390.3 386 390.5Q386.4 390.7 386.4 391.2Q386.3 391.6 385.9 391.7ZM139.7 439Q140.4 439.9 139.3 440.5Q138.2 441 137.2 440.8Q136.2 440.5 135.4 439.8Q134.5 439.1 135.7 438.7Q136.9 438.4 137.9 438.3Q139 438.2 139.7 439ZM395.4 348.9Q394.8 348.4 395.5 347.9Q396.2 347.5 396.9 347.6Q397.6 347.8 398 348.4Q398.4 349 397.9 349.7Q397.3 350.3 396.7 349.9Q396 349.5 395.4 348.9ZM169.7 32.8Q169.9 32.4 170.3 32.5Q170.8 32.7 170.8 33.1Q170.8 33.6 170.5 34Q170.2 34.4 169.8 34.2Q169.3 34.1 169.4 33.6Q169.5 33.1 169.7 32.8ZM368.7 463.4Q369.1 463.2 369.5 463.5Q369.8 463.8 369.7 464.3Q369.6 464.7 369.2 464.8Q368.8 464.9 368.5 464.7Q368.1 464.4 368.2 464Q368.3 463.5 368.7 463.4ZM322.6 481.2Q322.8 480.9 323.2 481.1Q323.5 481.3 323.7 481.8Q323.9 482.2 323.5 482.5Q323.2 482.9 322.8 482.6Q322.5 482.3 322.4 481.9Q322.3 481.5 322.6 481.2ZM376.3 126.1Q375.5 125.2 376.2 124.3Q377 123.4 378.6 122.9Q380.2 122.3 380.7 123.6Q381.3 124.9 380.7 126Q380.2 127.1 378.6 127.1Q377.1 127 376.3 126.1ZM123.6 463.9Q123.9 463.8 124.2 463.9Q124.5 464 124.5 464.3Q124.5 464.6 124.1 464.6Q123.6 464.7 123.3 464.5Q123 464.4 123.2 464.2Q123.4 464 123.6 463.9ZM261.7 371.3Q261.6 371.6 261.3 371.4Q261 371.2 260.8 370.9Q260.7 370.6 261 370.4Q261.3 370.1 261.6 370.2Q262 370.3 262 370.7Q261.9 371 261.7 371.3ZM172.6 449.3Q172.3 449 172.4 448.7Q172.5 448.4 172.9 448.2Q173.2 448.1 173.5 448.3Q173.8 448.6 173.7 448.9Q173.6 449.2 173.3 449.4Q172.9 449.6 172.6 449.3ZM142.4 414.8Q141.3 415.6 139.5 415.1Q137.7 414.7 137.9 413.5Q138 412.4 139.5 412.1Q140.9 411.8 142.1 412.1Q143.2 412.5 143.4 413.3Q143.5 414.1 142.4 414.8ZM193.1 323.4Q192.9 322.9 193.3 322.4Q193.7 322 194.2 322.3Q194.7 322.6 194.8 323.2Q194.9 323.7 194.5 324Q194.1 324.4 193.6 324.1Q193.2 323.9 193.1 323.4ZM345.4 103.2Q345.6 103.5 345.3 103.8Q345.1 104 344.6 104Q344.2 104 344.1 103.6Q344.1 103.2 344.3 102.9Q344.5 102.6 344.9 102.8Q345.3 102.9 345.4 103.2ZM116.2 118.7Q115.9 118.1 116.4 117.6Q116.9 117.1 117.7 117.2Q118.5 117.2 119.2 117.7Q119.8 118.2 119 118.5Q118.2 118.9 117.4 119.1Q116.6 119.3 116.2 118.7ZM353.9 363.3Q353.7 362.3 354.5 361.5Q355.3 360.6 356.7 360.9Q358.2 361.2 358.1 362.3Q358 363.3 357.3 364.3Q356.7 365.2 355.4 364.7Q354.1 364.2 353.9 363.3ZM388 343.9Q388.5 344.1 388.6 344.4Q388.7 344.8 388.1 344.9Q387.6 345 387.2 344.9Q386.8 344.7 386.6 344.4Q386.3 344 386.9 343.9Q387.6 343.8 388 343.9ZM175.6 348Q174.8 348.3 173.9 348.2Q173 348.2 173 347.6Q173.1 347 173.6 346.4Q174 345.8 175 346.1Q176 346.3 176.2 347Q176.4 347.7 175.6 348ZM130.8 423.8Q130.4 423.7 130.4 423.5Q130.4 423.2 130.7 423.1Q131 423 131.3 423Q131.7 423.1 131.7 423.3Q131.7 423.5 131.4 423.7Q131.2 423.9 130.8 423.8ZM187.5 191.2Q188 190.5 188.7 190.9Q189.4 191.3 189.9 192Q190.4 192.6 189.8 193.2Q189.2 193.8 188.2 193.9Q187.2 194 187.1 193Q186.9 191.9 187.5 191.2ZM112.6 142.9Q112.5 142.7 112.6 142.5Q112.8 142.3 113.1 142.3Q113.4 142.3 113.7 142.6Q114 142.9 113.7 143.1Q113.3 143.3 113 143.2Q112.7 143.2 112.6 142.9ZM119.7 349.4Q120.2 348.4 121.5 348.4Q122.9 348.4 123.8 349.1Q124.7 349.8 124.4 351Q124.2 352.2 122.3 352.5Q120.4 352.7 119.8 351.5Q119.2 350.3 119.7 349.4Z"/></svg>
